<?xml version="1.0" encoding="utf-8"?>
<!-- Generator: Adobe Illustrator 27.9.0, SVG Export Plug-In . SVG Version: 6.00 Build 0)  -->
<svg version="1.1" id="Calque_1" xmlns="http://www.w3.org/2000/svg" xmlns:xlink="http://www.w3.org/1999/xlink" x="0px" y="0px"
	 viewBox="0 0 1600 1600" style="enable-background:new 0 0 1600 1600;" xml:space="preserve">
<style type="text/css">
	.st0{fill:#FFFFFF;}
</style>
<g>
	<path class="st0" d="M1450.2,449.1c-44.4,19.2-91.9,32.3-141.4,38.4c50.5-30.3,89.9-78.8,108-136.3c-47.5,28.3-100,48.5-156.5,59.6
		c-44.4-46.4-108-76.7-178.7-76.7C923.1,334,806,482.4,842.3,635.9c-204-10.1-385.7-108-506.9-256.5
		c-64.6,110.1-33.3,254.5,75.7,328.2c-40.4-1-77.7-12.1-111.1-30.3c-3,114.1,78.8,220.1,196.9,244.4c-34.3,9.1-72.7,11.1-111.1,4
		c31.3,97.9,122.2,168.6,229.2,170.6c-103,80.8-233.2,117.1-363.5,102c109.1,69.7,238.3,110.1,376.6,110.1
		c456.4,0,713.9-385.7,698.7-731C1375.5,542,1417.9,498.6,1450.2,449.1z"/>
</g>
</svg>
